<svg width="16" height="16" viewBox="0 0 16 16" fill="none" xmlns="http://www.w3.org/2000/svg">
<path d="M15.04 3.32076H11.504C11.4206 2.412 11.0154 1.56825 10.3676 0.954236C9.71962 0.340213 8.87552 0 8 0C7.12448 0 6.28038 0.340213 5.63247 0.954236C4.98458 1.56825 4.57939 2.412 4.496 3.32076H0.96C0.705395 3.32076 0.46121 3.42622 0.281178 3.61394C0.101142 3.80166 0 4.05627 0 4.32175V14.999C0 15.2645 0.101142 15.5191 0.281178 15.7068C0.46121 15.8946 0.705395 16 0.96 16H15.04C15.2946 16 15.5388 15.8946 15.7188 15.7068C15.8989 15.5191 16 15.2645 16 14.999V4.32175C16 4.05627 15.8989 3.80166 15.7188 3.61394C15.5388 3.42622 15.2946 3.32076 15.04 3.32076ZM8 0.651442C8.70822 0.652803 9.3913 0.925467 9.91936 1.41762C10.4474 1.90976 10.7836 2.58706 10.864 3.32076H5.136C5.21643 2.58706 5.55263 1.90976 6.08064 1.41762C6.6087 0.925467 7.29178 0.652803 8 0.651442ZM15.36 14.999C15.36 15.0875 15.3263 15.1724 15.2663 15.235C15.2063 15.2976 15.1249 15.3327 15.04 15.3327H0.96C0.87513 15.3327 0.793734 15.2976 0.733728 15.235C0.673715 15.1724 0.64 15.0875 0.64 14.999V4.32175C0.64 4.23326 0.673715 4.14839 0.733728 4.08582C0.793734 4.02324 0.87513 3.98809 0.96 3.98809H15.04C15.1249 3.98809 15.2063 4.02324 15.2663 4.08582C15.3263 4.14839 15.36 4.23326 15.36 4.32175V14.999Z" fill="white"/>
</svg>
